<svg width="24" height="24" viewBox="0 0 24 24" fill="none" xmlns="http://www.w3.org/2000/svg">
<g clip-path="url(#clip0_33602_425)">
<path d="M2.34306 21.6576C1.60017 20.9146 1.01089 20.0326 0.608871 19.0619C0.206848 18.0912 -4.64215e-05 17.0509 7.81267e-09 16.0002C9.3776e-05 13.8783 0.843097 11.8434 2.34356 10.3431C3.84402 8.84273 5.87903 7.99991 8.00091 8C10.1228 8.00009 12.1577 8.8431 13.6581 10.3436C15.1584 11.844 16.0012 13.879 16.0011 16.0009C16.001 18.1228 15.158 20.1577 13.6576 21.6581C12.1571 23.1584 10.1221 24.0012 8.00021 24.0011C5.87833 24.001 3.84339 23.158 2.34306 21.6576ZM6.03006 12.9706C5.8878 12.8382 5.69975 12.766 5.50543 12.7694C5.31111 12.7728 5.12566 12.8513 4.98806 12.9886C4.85082 13.1262 4.77226 13.3116 4.7689 13.5059C4.76555 13.7002 4.83765 13.8883 4.97006 14.0306L6.94006 16.0006L4.97006 17.9706C4.87133 18.0622 4.79916 18.1788 4.76115 18.3081C4.72314 18.4373 4.72069 18.5744 4.75406 18.705C4.78743 18.8355 4.85539 18.9546 4.95078 19.0497C5.04617 19.1449 5.16545 19.2125 5.29606 19.2456C5.42644 19.279 5.56341 19.2766 5.69257 19.2388C5.82173 19.201 5.93832 19.129 6.03006 19.0306L8.00006 17.0606L9.97006 19.0306C10.0617 19.1293 10.1783 19.2015 10.3076 19.2395C10.4368 19.2775 10.5739 19.2799 10.7045 19.2466C10.835 19.2132 10.9541 19.1452 11.0492 19.0498C11.1444 18.9545 11.212 18.8352 11.2451 18.7046C11.2785 18.5742 11.2761 18.4372 11.2383 18.308C11.2005 18.1789 11.1285 18.0623 11.0301 17.9706L9.06006 16.0006L11.0301 14.0306C11.1288 13.9389 11.201 13.8223 11.239 13.693C11.277 13.5638 11.2794 13.4267 11.2461 13.2962C11.2127 13.1656 11.1447 13.0465 11.0493 12.9514C10.954 12.8562 10.8347 12.7886 10.7041 12.7556C10.5737 12.7221 10.4367 12.7245 10.3075 12.7623C10.1784 12.8001 10.0618 12.8721 9.97006 12.9706L8.00006 14.9406L6.03006 12.9706Z" fill="#E03F41"/>
</g>
<defs>
<clipPath id="clip0_33602_425">
<rect width="24" height="24" fill="white"/>
</clipPath>
</defs>
</svg>
