<svg width="54" height="24" viewBox="0 0 54 24" fill="none" xmlns="http://www.w3.org/2000/svg">
<path d="M0 8C0 5.79086 1.79086 4 4 4H50C52.2091 4 54 5.79086 54 8V20C54 22.2091 52.2091 24 50 24H4C1.79086 24 0 22.2091 0 20V8Z" fill="#E03F41"/>
<path d="M7.34297 18V9.54492H12.7336V10.8164H8.85469V13.3184H12.3996V14.5488H8.85469V18H7.34297ZM13.2171 18L16.2171 9.54492H17.9222L20.9222 18H19.3402L18.6312 15.8145H15.5023L14.7991 18H13.2171ZM17.0198 11.1152L15.8831 14.6484H18.2562L17.1195 11.1152H17.0198ZM22.2553 18V9.54492H23.767V18H22.2553ZM25.733 18V9.54492H27.2447V16.7285H31.1236V18H25.733ZM32.6325 18V9.54492H38.1052V10.8164H34.1442V13.1074H37.8884V14.3086H34.1442V16.7285H38.1052V18H32.6325ZM39.8602 18V9.54492H43.0301C45.5438 9.54492 47.0086 11.0801 47.0086 13.7285V13.7402C47.0086 16.4473 45.5613 18 43.0301 18H39.8602ZM41.3719 16.7285H42.8309C44.5125 16.7285 45.4676 15.6621 45.4676 13.7637V13.752C45.4676 11.8945 44.4891 10.8164 42.8309 10.8164H41.3719V16.7285Z" fill="white"/>
</svg>
