<svg width="16" height="17" viewBox="0 0 16 17" fill="none" xmlns="http://www.w3.org/2000/svg">
<path d="M2.34306 14.6473C1.60017 13.9044 1.01089 13.0224 0.608871 12.0517C0.206848 11.081 -4.64215e-05 10.0406 7.81267e-09 8.98995C9.3776e-05 6.86807 0.843097 4.83314 2.34356 3.33281C3.84402 1.83248 5.87903 0.989652 8.00091 0.989746C10.1228 0.98984 12.1577 1.83284 13.6581 3.33331C15.1584 4.83377 16.0012 6.86878 16.0011 8.99066C16.001 11.1125 15.158 13.1475 13.6576 14.6478C12.1571 16.1481 10.1221 16.991 8.00021 16.9909C5.87833 16.9908 3.84339 16.1478 2.34306 14.6473ZM6.03006 5.96031C5.8878 5.8279 5.69975 5.75579 5.50543 5.75915C5.31111 5.76251 5.12566 5.84106 4.98806 5.97831C4.85082 6.11591 4.77226 6.30136 4.7689 6.49568C4.76555 6.68999 4.83765 6.87804 4.97006 7.02031L6.94006 8.99031L4.97006 10.9603C4.87133 11.052 4.79916 11.1686 4.76115 11.2978C4.72314 11.4271 4.72069 11.5642 4.75406 11.6947C4.78743 11.8252 4.85539 11.9443 4.95078 12.0395C5.04617 12.1346 5.16545 12.2023 5.29606 12.2353C5.42644 12.2687 5.56341 12.2664 5.69257 12.2286C5.82173 12.1907 5.93832 12.1188 6.03006 12.0203L8.00006 10.0503L9.97006 12.0203C10.0617 12.119 10.1783 12.1912 10.3076 12.2292C10.4368 12.2672 10.5739 12.2697 10.7045 12.2363C10.835 12.2029 10.9541 12.135 11.0492 12.0396C11.1444 11.9442 11.212 11.8249 11.2451 11.6943C11.2785 11.5639 11.2761 11.427 11.2383 11.2978C11.2005 11.1686 11.1285 11.052 11.0301 10.9603L9.06006 8.99031L11.0301 7.02031C11.1288 6.92863 11.201 6.81203 11.239 6.68278C11.277 6.55353 11.2794 6.41642 11.2461 6.2859C11.2127 6.15538 11.1447 6.03627 11.0493 5.94113C10.954 5.84599 10.8347 5.77834 10.7041 5.74531C10.5737 5.71189 10.4367 5.71422 10.3075 5.75205C10.1784 5.78989 10.0618 5.86183 9.97006 5.96031L8.00006 7.93031L6.03006 5.96031Z" fill="#E03F41"/>
</svg>
