<svg width="16" height="16" viewBox="0 0 16 16" fill="none" xmlns="http://www.w3.org/2000/svg">
<path d="M8 15.9902C5.87827 15.9902 3.84344 15.1474 2.34315 13.6471C0.842855 12.1468 0 10.112 0 7.99023C0 5.8685 0.842855 3.83367 2.34315 2.33338C3.84344 0.833089 5.87827 -0.00976562 8 -0.00976562C10.1217 -0.00976562 12.1566 0.833089 13.6569 2.33338C15.1571 3.83367 16 5.8685 16 7.99023C16 10.112 15.1571 12.1468 13.6569 13.6471C12.1566 15.1474 10.1217 15.9902 8 15.9902ZM11.78 6.27023C11.9124 6.12797 11.9845 5.93992 11.9812 5.7456C11.9778 5.55129 11.8992 5.36584 11.762 5.22823C11.6244 5.09099 11.4389 5.01244 11.2446 5.00908C11.0503 5.00572 10.8623 5.07783 10.72 5.21023L6.75 9.18023L5.28 7.71023C5.13774 7.57783 4.94969 7.50572 4.75537 7.50908C4.56105 7.51244 4.3756 7.59099 4.238 7.72823C4.10076 7.86584 4.0222 8.05129 4.01884 8.2456C4.01549 8.43992 4.08759 8.62797 4.22 8.77023L6.22 10.7702C6.36063 10.9107 6.55125 10.9896 6.75 10.9896C6.94875 10.9896 7.13937 10.9107 7.28 10.7702L11.78 6.27023Z" fill="#3A9A48"/>
</svg>
