<svg width="16" height="17" viewBox="0 0 16 17" fill="none" xmlns="http://www.w3.org/2000/svg">
<g clip-path="url(#clip0_33602_530)">
<path d="M13.222 9.38827C13.4049 9.17419 13.5045 8.89119 13.4998 8.59877C13.4952 8.30635 13.3867 8.02728 13.1971 7.8202C13.007 7.61367 12.7508 7.49545 12.4824 7.4904C12.2139 7.48535 11.9541 7.59386 11.7576 7.79311L6.27316 13.7674L4.2424 11.5553C4.04587 11.356 3.78608 11.2475 3.51764 11.2526C3.2492 11.2576 2.99301 11.3758 2.80291 11.5824C2.61331 11.7894 2.50479 12.0685 2.50015 12.3609C2.49552 12.6534 2.59513 12.9363 2.77804 13.1504L5.54098 16.1602C5.73525 16.3715 5.99859 16.4902 6.27316 16.4902C6.54773 16.4902 6.81107 16.3715 7.00534 16.1602L13.222 9.38827Z" fill="#3A9A48"/>
</g>
<defs>
<clipPath id="clip0_33602_530">
<rect width="16" height="16" fill="white" transform="translate(0 0.490234)"/>
</clipPath>
</defs>
</svg>
