<svg width="100" height="51" viewBox="0 0 100 51" fill="none" xmlns="http://www.w3.org/2000/svg">
<path d="M46.3469 23.578C46.4461 23.2438 46.6814 22.7522 46.9458 22.1998C47.6144 20.803 48.4692 19.0172 47.7802 18.402C47.0809 17.858 45.1652 20.0916 43.692 21.8094C43.0113 22.6031 42.425 23.2866 42.0969 23.5351C40.1942 25.7651 37.9541 27.6213 35.7068 29.4835C35.6294 29.5476 35.552 29.6118 35.4746 29.6759C34.9013 30.3175 34.4183 29.7121 34.5944 29.0591M46.3469 23.578L67.3076 33.2211L67.3097 33.2411C67.306 33.2415 67.3022 33.2419 67.2985 33.2423C67.2654 33.2457 67.2324 33.249 67.1994 33.2522M46.3469 23.578C43.6634 31.6016 48.1031 31.4866 53.3631 31.3504M46.3469 23.578L53.3631 31.3504M34.5944 29.0591L34.6905 29.0864C34.6906 29.0862 34.6907 29.086 34.6907 29.0858M34.5944 29.0591L34.6909 29.0851C34.6908 29.0854 34.6908 29.0856 34.6907 29.0858M34.5944 29.0591C35.3825 26.2836 36.3366 23.5636 37.2896 20.8464C39.055 15.8136 40.8168 10.7905 41.5145 5.44259C41.6865 4.71316 42.4142 4.86298 43.1158 5.00744C43.4638 5.07909 43.8054 5.14942 44.0696 5.11047L67.1994 33.1517V33.1518V33.152V33.1521V33.1523V33.1524V33.1526V33.1527V33.1529V33.153V33.1532V33.1533V33.1535V33.1536V33.1538V33.1539V33.1541V33.1542V33.1544V33.1545V33.1547V33.1548V33.155V33.1551V33.1553V33.1554V33.1556V33.1557V33.1559V33.156V33.1562V33.1563V33.1565V33.1566V33.1568V33.1569V33.1571V33.1572V33.1574V33.1575V33.1577V33.1578V33.158V33.1581V33.1583V33.1584V33.1586V33.1587V33.1589V33.159V33.1592V33.1593V33.1595V33.1596V33.1598V33.16V33.1601V33.1603V33.1604V33.1606V33.1607V33.1609V33.161V33.1612V33.1613V33.1615V33.1616V33.1618V33.1619V33.1621V33.1622V33.1624V33.1625V33.1627V33.1628V33.163V33.1631V33.1633V33.1634V33.1636V33.1637V33.1639V33.164V33.1642V33.1644V33.1645V33.1647V33.1648V33.165V33.1651V33.1653V33.1654V33.1656V33.1657V33.1659V33.166V33.1662V33.1663V33.1665V33.1666V33.1668V33.1669V33.1671V33.1673V33.1674V33.1676V33.1677V33.1679V33.168V33.1682V33.1683V33.1685V33.1686V33.1688V33.1689V33.1691V33.1692V33.1694V33.1695V33.1697V33.1699V33.17V33.1702V33.1703V33.1705V33.1706V33.1708V33.1709V33.1711V33.1712V33.1714V33.1715V33.1717V33.1719V33.172V33.1722V33.1723V33.1725V33.1726V33.1728V33.1729V33.1731V33.1732V33.1734V33.1735V33.1737V33.1739V33.174V33.1742V33.1743V33.1745V33.1746V33.1748V33.1749V33.1751V33.1753V33.1754V33.1756V33.1757V33.1759V33.176V33.1762V33.1763V33.1765V33.1766V33.1768V33.177V33.1771V33.1773V33.1774V33.1776V33.1777V33.1779V33.178V33.1782V33.1783V33.1785V33.1787V33.1788V33.179V33.1791V33.1793V33.1794V33.1796V33.1797V33.1799V33.1801V33.1802V33.1804V33.1805V33.1807V33.1808V33.181V33.1811V33.1813V33.1815V33.1816V33.1818V33.1819V33.1821V33.1822V33.1824V33.1825V33.1827V33.1829V33.183V33.1832V33.1833V33.1835V33.1836V33.1838V33.184V33.1841V33.1843V33.1844V33.1846V33.1847V33.1849V33.185V33.1852V33.1854V33.1855V33.1857V33.1858V33.186V33.1861V33.1863V33.1865V33.1866V33.1868V33.1869V33.1871V33.1872V33.1874V33.1875V33.1877V33.1879V33.188V33.1882V33.1883V33.1885V33.1886V33.1888V33.189V33.1891V33.1893V33.1894V33.1896V33.1897V33.1899V33.1901V33.1902V33.1904V33.1905V33.1907V33.1908V33.191V33.1912V33.1913V33.1915V33.1916V33.1918V33.1919V33.1921V33.1923V33.1924V33.1926V33.1927V33.1929V33.193V33.1932V33.1934V33.1935V33.1937V33.1938V33.194V33.1941V33.1943V33.1945V33.1946V33.1948V33.1949V33.1951V33.1952V33.1954V33.1956V33.1957V33.1959V33.196V33.1962V33.1964V33.1965V33.1967V33.1968V33.197V33.1971V33.1973V33.1975V33.1976V33.1978V33.1979V33.1981V33.1982V33.1984V33.1986V33.1987V33.1989V33.199V33.1992V33.1993V33.1995V33.1997V33.1998V33.2V33.2001V33.2003V33.2005V33.2006V33.2008V33.2009V33.2011V33.2012V33.2014V33.2016V33.2017V33.2019V33.202V33.2022V33.2024V33.2025V33.2027V33.2028V33.203V33.2031V33.2033V33.2035V33.2036V33.2038V33.2039V33.2041V33.2043V33.2044V33.2046V33.2047V33.2049V33.205V33.2052V33.2054V33.2055V33.2057V33.2058V33.206V33.2062V33.2063V33.2065V33.2066V33.2068V33.2069V33.2071V33.2073V33.2074V33.2076V33.2077V33.2079V33.2081V33.2082V33.2084V33.2085V33.2087V33.2088V33.209V33.2092V33.2093V33.2095V33.2096V33.2098V33.21V33.2101V33.2103V33.2104V33.2106V33.2108V33.2109V33.2111V33.2112V33.2114V33.2115V33.2117V33.2119V33.212V33.2122V33.2123V33.2125V33.2127V33.2128V33.213V33.2131V33.2133V33.2134V33.2136V33.2138V33.2139V33.2141V33.2142V33.2144V33.2146V33.2147V33.2149V33.215V33.2152V33.2154V33.2155V33.2157V33.2158V33.216V33.2161V33.2163V33.2165V33.2166V33.2168V33.2169V33.2171V33.2173V33.2174V33.2176V33.2177V33.2179V33.2181V33.2182V33.2184V33.2185V33.2187V33.2188V33.219V33.2192V33.2193V33.2195V33.2196V33.2198V33.22V33.2201V33.2203V33.2204V33.2206V33.2208V33.2522M34.6907 29.0858C34.6094 29.3882 34.6866 29.6587 34.8202 29.7785C34.8838 29.8355 34.9613 29.8609 35.0519 29.8438C35.1461 29.826 35.2655 29.7598 35.4 29.6093L35.405 29.6037L35.4108 29.5989C35.4874 29.5354 35.564 29.4719 35.6406 29.4085C37.8897 27.5448 40.1239 25.6935 42.0208 23.4702L42.0278 23.4619L42.0365 23.4554C42.2857 23.2667 42.6989 22.8078 43.2035 22.2241C43.3355 22.0715 43.4732 21.9108 43.6153 21.7452C44.0118 21.2829 44.4414 20.782 44.8703 20.3083C45.4524 19.6656 46.0387 19.067 46.546 18.6785C46.7991 18.4848 47.039 18.3383 47.2535 18.267C47.4684 18.1957 47.6766 18.1947 47.8416 18.323L47.8469 18.3272L47.8468 18.3274C48.1262 18.5769 48.1733 18.9793 48.1101 19.4212C48.0462 19.8676 47.8658 20.3867 47.6476 20.9083C47.4582 21.361 47.2379 21.8212 47.0359 22.2432C47.0047 22.3083 46.974 22.3724 46.9439 22.4355C46.717 22.9113 46.5276 23.3208 46.4428 23.6065L46.4418 23.6098L46.4418 23.6098C45.6197 26.0676 45.4753 27.7396 45.8032 28.8736C46.1276 29.9961 46.9203 30.6081 48.0294 30.9359C49.145 31.2655 50.5694 31.3035 52.1331 31.2783C52.5333 31.2718 52.9424 31.2612 53.3572 31.2505C54.5574 31.2194 55.805 31.187 57.0191 31.2502L57.0282 31.2507L57.037 31.2528C65.7453 33.3216 73.0134 32.3358 81.6399 30.5113M34.6907 29.0858C35.478 26.3135 36.4304 23.5984 37.3829 20.8827C37.7893 19.7242 38.1957 18.5655 38.5893 17.4024C39.9041 13.5171 41.0742 9.5863 41.613 5.46071C41.671 5.2199 41.7919 5.09977 41.9463 5.04013C42.1111 4.97652 42.3265 4.97693 42.5765 5.01048C42.7439 5.03295 42.9163 5.06847 43.091 5.10446C43.1775 5.12227 43.2645 5.1402 43.3518 5.15672C43.6048 5.20462 43.8592 5.24045 44.0748 5.21073C44.3679 5.22133 44.6612 5.23123 44.9545 5.24113C48.3393 5.35538 51.7313 5.46987 54.9339 6.67182C55.1246 6.8633 55.2149 7.00717 55.2425 7.11263C55.2561 7.16442 55.2541 7.20479 55.2435 7.2378C55.2327 7.27121 55.211 7.30427 55.174 7.33734C55.0972 7.4061 54.9661 7.46505 54.7846 7.51606C54.6056 7.56637 54.3902 7.60575 54.1548 7.64264C54.048 7.65937 53.937 7.67558 53.824 7.69209C53.4442 7.74756 53.0414 7.8064 52.6965 7.89994C52.4719 7.96087 52.2645 8.03829 52.0991 8.14348C51.933 8.24915 51.8033 8.38698 51.7473 8.56953L51.7182 8.66438L51.8129 8.69421C51.8796 8.71524 51.9461 8.74284 52.0172 8.77245L52.0211 8.77404C52.0896 8.80257 52.1625 8.83296 52.2367 8.85653C52.386 8.90397 52.5517 8.92756 52.7286 8.8568C53.6606 8.7392 54.4 8.59386 54.9721 8.42815C55.5456 8.26204 55.9572 8.07368 56.2259 7.86734C56.4959 7.65999 56.6316 7.42575 56.6245 7.17292C56.6174 6.92542 56.4738 6.68894 56.2523 6.47249C55.8093 6.03943 55.0038 5.63627 54.0635 5.32204C53.1204 5.00686 52.0282 4.77675 50.9994 4.69688C48.8924 4.45178 46.7706 4.32872 44.6524 4.20587C43.9179 4.16327 43.1838 4.1207 42.4509 4.07307L42.451 4.07224L42.4381 4.07306C42.0284 4.09899 41.8328 3.99415 41.729 3.84266C41.6168 3.67881 41.59 3.43306 41.588 3.12474C41.5875 3.04561 41.5886 2.96259 41.5898 2.87727C41.593 2.64289 41.5964 2.39104 41.5667 2.15404C41.5257 1.82664 41.4199 1.506 41.1513 1.26393C40.8096 0.940302 40.4654 0.848251 40.13 0.925929C39.8038 1.00149 39.5037 1.23395 39.2333 1.51783C38.9614 1.80329 38.7085 2.15268 38.4798 2.47874C38.4456 2.52755 38.412 2.57574 38.3789 2.62309C38.1887 2.89556 38.018 3.14018 37.8645 3.31354L37.8576 3.32128L37.8525 3.33026C37.6775 3.63687 37.4596 3.82262 37.2147 3.93603C36.9675 4.05048 36.6873 4.09379 36.3845 4.10569C36.1716 4.11407 35.9541 4.10693 35.7317 4.09962C35.6356 4.09647 35.5385 4.09328 35.4405 4.09131C35.1223 4.08489 34.7993 4.09163 34.4946 4.15987C33.2372 4.29169 31.9528 4.39107 30.658 4.49124C28.6404 4.64734 26.5979 4.80537 24.5938 5.09111C21.2963 5.56127 18.0795 6.37923 15.1907 8.11186C13.3187 9.10806 12.4509 10.0929 12.3088 11.0591C12.1662 12.0287 12.7608 12.9288 13.6783 13.7359C14.5995 14.5462 15.8716 15.2857 17.1443 15.9354C17.9549 16.3493 18.772 16.7297 19.501 17.0691C19.9112 17.2601 20.2936 17.4382 20.6312 17.6018C20.7278 17.6752 20.8705 17.7549 21.0385 17.8391C21.2131 17.9266 21.4214 18.022 21.6458 18.1234C21.699 18.1474 21.7532 18.1718 21.808 18.1965C22.2176 18.3808 22.6677 18.5834 23.0733 18.7974C23.5364 19.0417 23.9262 19.2934 24.1317 19.5392C24.2336 19.6611 24.2812 19.7709 24.2815 19.8695C24.2817 19.9647 24.2377 20.0699 24.1108 20.185L24.1026 20.1925L24.0962 20.2015C22.6583 22.2409 21.1028 24.1907 19.5209 26.1242L19.5199 26.1255C16.9256 29.4061 14.1844 32.5667 11.4413 35.7292C10.3342 37.0057 9.22677 38.2825 8.1286 39.5677L8.12857 39.5677L8.1269 39.5697C7.84138 39.9225 7.36453 40.4649 6.7867 41.1221C6.36178 41.6055 5.88225 42.1509 5.38404 42.7287C4.21134 44.0888 2.93879 45.6241 2.05179 46.9297C1.60873 47.5818 1.25838 48.1815 1.06569 48.6763C0.969393 48.9236 0.910294 49.15 0.901225 49.3469C0.89213 49.5443 0.933216 49.7209 1.0476 49.8552C1.16202 49.9895 1.33638 50.0658 1.56088 50.0907C1.78474 50.1156 2.06719 50.0906 2.41248 50.0144C3.10335 49.8619 4.06852 49.4991 5.36543 48.8799C11.7729 45.8233 17.9607 42.3194 23.9737 38.5561L23.9738 38.5563L23.9779 38.5534C27.1476 36.3422 30.1704 33.9686 31.5195 31.2439C32.1963 29.8771 32.4533 28.4199 32.0966 26.8523C31.7406 25.2871 30.775 23.6214 29.0245 21.8308C28.8544 21.643 28.7912 21.4591 28.7905 21.2786C28.7899 21.094 28.8548 20.9031 28.9589 20.705C29.0631 20.5068 29.2019 20.3099 29.3418 20.1118L29.3474 20.1039C29.4823 19.9131 29.6188 19.72 29.715 19.533C31.2916 17.2157 32.6205 14.7571 33.9482 12.3005C34.3032 11.6437 34.6581 10.9871 35.0176 10.3333C35.2781 9.9714 35.531 9.48775 35.7859 8.96267C35.8854 8.75793 35.9849 8.54731 36.0855 8.33431C36.2461 7.99457 36.4095 7.64878 36.5799 7.31117C36.8562 6.76335 37.1461 6.247 37.46 5.83344C37.7726 5.42177 38.1018 5.12175 38.4558 4.98811C38.9013 4.90773 39.5543 4.86774 40.0322 5.01298C40.2717 5.08577 40.4531 5.20075 40.5505 5.36592C40.6462 5.52833 40.673 5.7606 40.5577 6.09701L40.5576 6.09696L40.5561 6.1023C40.226 7.27425 40.0126 8.47424 39.8003 9.66776C39.7473 9.96543 39.6945 10.2627 39.6399 10.559C39.3659 12.0465 39.048 13.514 38.461 14.9133L38.4608 14.9132L38.4587 14.9196C38.032 16.1648 37.5971 17.4085 37.1619 18.6527C36.2906 21.1443 35.4184 23.6383 34.6098 26.1524L34.6097 26.1524L34.6086 26.1564C34.4977 26.5581 34.352 26.9561 34.2042 27.36C34.1352 27.5485 34.0657 27.7383 33.9991 27.9303C33.7915 28.5287 33.6148 29.1414 33.5871 29.7709L33.5867 29.7793L33.5878 29.7877C33.7049 30.7258 34.7955 31.2146 35.5359 30.6468C37.7018 29.1384 39.5608 27.277 41.3648 25.3726C41.6847 25.035 42.0027 24.6961 42.3204 24.3576C43.7596 22.8239 45.1919 21.2977 46.7525 19.9309C46.82 20.2785 46.7499 20.6035 46.6213 20.929C46.5473 21.1161 46.455 21.3011 46.3592 21.4902L46.3407 21.5267C46.2521 21.7015 46.1616 21.8802 46.085 22.0621C45.3991 23.3572 45.0564 24.7381 44.8346 26.1683C44.3343 27.4696 44.5986 28.9569 45.3323 30.1157C46.068 31.2779 47.2858 32.1246 48.7037 32.1188C49.3003 32.1165 49.8965 32.1138 50.4925 32.111C51.683 32.1055 52.8729 32.1 54.064 32.0985V32.0986L54.0682 32.0984C56.1481 32.009 58.1833 32.3538 60.2309 32.7007C60.3716 32.7245 60.5123 32.7483 60.6532 32.7721C62.8042 33.1342 64.9716 33.4656 67.1994 33.2522M81.6399 30.5113C81.6397 30.5113 81.6395 30.5114 81.6393 30.5114L81.6611 30.6087L81.6404 30.5112C81.6403 30.5112 81.6401 30.5112 81.6399 30.5113ZM81.6399 30.5113C87.3576 29.2319 93.2755 28.1991 98.9842 27.284L99.1042 27.2647L99.0999 27.3862C99.0935 27.5681 99.0341 27.7145 98.9382 27.8322C98.8438 27.9482 98.7177 28.0318 98.584 28.0966C98.4503 28.1613 98.3036 28.2097 98.1641 28.252C98.1264 28.2635 98.0895 28.2744 98.0535 28.2851C97.9533 28.3148 97.8598 28.3425 97.7749 28.3736L97.7679 28.3761L97.7606 28.3776C95.8883 28.7601 94.0085 29.0934 92.1302 29.4264C91.9656 29.4556 91.8011 29.4848 91.6366 29.514C89.5936 29.8766 87.5531 30.244 85.5237 30.6797L85.5179 30.6809L85.5179 30.6807C83.5976 30.9762 81.6926 31.3737 79.7849 31.7718C78.6816 32.0021 77.5774 32.2325 76.4688 32.4435C73.448 33.0184 70.4045 33.4465 67.2953 33.3207L67.1994 33.3168V33.2522M26.6277 21.0603L26.6273 21.0601C26.448 20.9815 26.3199 20.9263 26.222 20.8951C26.1222 20.8633 26.0741 20.8636 26.0462 20.873C26.0222 20.881 25.9931 20.9028 25.9524 20.9768C25.9114 21.0511 25.8692 21.1578 25.8085 21.3112L26.6277 21.0603ZM26.6277 21.0603C26.8779 21.169 27.0486 21.3235 27.1295 21.4838C27.2065 21.6364 27.2056 21.7988 27.1081 21.9529L26.6277 21.0603ZM53.3631 31.3504C54.5623 31.3193 55.8041 31.2871 57.0139 31.35L53.3631 31.3504ZM51.881 8.50601C51.8783 8.50515 51.8757 8.5043 51.873 8.50347L51.8456 8.59049C51.8447 8.59326 51.8438 8.59604 51.8429 8.59884C51.9153 8.62164 51.9866 8.65136 52.0577 8.68097C52.2683 8.7687 52.4767 8.85553 52.7029 8.75925C60.1828 7.81938 55.0728 5.11273 50.9897 4.79643L51.881 8.50601ZM41.4898 2.86928C41.48 3.59462 41.4712 4.23447 42.4445 4.17286L34.5108 4.25871C34.8926 4.17217 35.3097 4.18586 35.7244 4.19946C36.5872 4.22776 37.4393 4.25572 37.9393 3.37984C38.0971 3.20174 38.2718 2.95134 38.4616 2.67935C39.1627 1.67471 40.0692 0.375556 41.0834 1.33743C41.5055 1.71701 41.4974 2.31785 41.4898 2.86928ZM19.5983 26.1875C21.1806 24.2536 22.7379 22.3015 24.1779 20.2591L19.5983 26.1875ZM9.4091 45.8111L9.40736 45.8121C6.37993 47.4544 4.44458 48.3634 3.32657 48.7087C3.04769 48.7949 2.82334 48.8447 2.64781 48.8628C2.47015 48.8812 2.35359 48.8658 2.28232 48.8329C2.21897 48.8037 2.18681 48.7591 2.17698 48.6897C2.16602 48.6123 2.18334 48.5015 2.23913 48.3529C2.35016 48.057 2.59583 47.6564 2.95083 47.1673C3.30442 46.6802 3.76131 46.1121 4.28885 45.4829C4.87155 44.7878 5.53739 44.0216 6.24317 43.2095C6.81702 42.5491 7.41727 41.8584 8.02071 41.1508C13.8074 34.5373 19.3905 27.813 24.8379 20.9167C24.8253 21.0102 24.8004 21.1233 24.7642 21.2543C24.684 21.5443 24.5517 21.9105 24.3892 22.3245C24.2382 22.7094 24.0624 23.133 23.8802 23.5718L23.8394 23.6699C23.6429 24.1432 23.4409 24.6318 23.2572 25.1044C22.8919 26.0446 22.5927 26.9378 22.5618 27.5274C22.5466 27.8168 22.5936 28.075 22.7785 28.2092C22.9646 28.3441 23.2405 28.3181 23.5868 28.1731L23.603 28.1663L23.6159 28.1545C24.8628 27.0083 25.8117 25.6085 26.7504 24.2237C26.9632 23.9097 27.1755 23.5965 27.3906 23.2872L27.3913 23.2877L27.3973 23.2761C27.5492 22.9833 27.7609 22.6534 27.9951 22.4927C28.1093 22.4143 28.2192 22.3828 28.3261 22.404C28.4342 22.4253 28.561 22.5047 28.6993 22.6947L28.6988 22.6951L28.7063 22.7034C30.0203 24.1416 30.7707 25.4981 31.0799 26.7789C31.3887 28.0583 31.2587 29.2686 30.801 30.419C29.8831 32.7256 27.6469 34.7922 24.9804 36.6657C20.0566 40.123 14.7459 43.0509 9.4091 45.8111ZM36.0494 4.91573C36.2886 4.99393 36.4112 5.12693 36.4617 5.27945C36.5207 5.45778 36.49 5.68762 36.3796 5.93745C35.6251 7.42297 34.8154 8.88002 34.0048 10.3386C33.7087 10.8716 33.4124 11.4048 33.1186 11.9396L33.1174 11.9419C31.605 14.8727 29.8827 17.7047 28.036 20.4335L28.0359 20.4335L28.0339 20.4368C27.9391 20.5892 27.8723 20.6426 27.8221 20.6528C27.7786 20.6617 27.7071 20.6444 27.5786 20.5213L27.568 20.5111L27.5549 20.5045C27.2366 20.3417 26.9481 20.1716 26.7952 19.959C26.7212 19.8561 26.6809 19.7455 26.6835 19.6208C26.6862 19.4948 26.7329 19.3444 26.8506 19.1637L26.8508 19.1638L26.8541 19.1579C27.1055 18.7079 27.3432 18.2514 27.5793 17.7959L27.623 17.7114C27.8444 17.2843 28.0651 16.8585 28.2961 16.4383C29.6692 14.0871 30.9586 11.6888 32.236 9.28515L32.2398 9.27792L32.2424 9.27015C32.303 9.09051 32.4188 8.88311 32.5526 8.65416C32.5698 8.62472 32.5873 8.59496 32.6049 8.56493C32.7223 8.36509 32.8468 8.15307 32.9453 7.94253C33.0584 7.70087 33.1429 7.44982 33.1408 7.20842C33.1387 6.96111 33.0455 6.72992 32.8172 6.5366L32.8037 6.52514L32.787 6.51903C32.7371 6.5007 32.686 6.51266 32.6534 6.52362C32.6166 6.53605 32.5792 6.55575 32.5451 6.57779C32.4789 6.62058 32.4077 6.6838 32.3687 6.74932L32.3685 6.7497C31.6265 8.01008 30.9086 9.28356 30.1912 10.5562C28.7007 13.2003 27.2122 15.841 25.5134 18.3537C25.42 18.4825 25.2775 18.5545 25.0816 18.5746C24.8825 18.595 24.6347 18.5604 24.3474 18.4795C23.7732 18.3178 23.071 17.9797 22.3438 17.5857C21.8719 17.33 21.3941 17.0534 20.9369 16.7887C20.6895 16.6455 20.4482 16.5058 20.2171 16.3748C19.5697 16.0078 18.9961 15.705 18.6136 15.6029C16.6142 14.7192 15.2194 13.9136 14.3624 13.1636C13.5033 12.4118 13.2052 11.7355 13.3424 11.1045C13.4819 10.4625 14.0787 9.82355 15.1236 9.17041C16.163 8.52067 17.6236 7.87042 19.4508 7.19615C24.8028 5.7047 30.3978 5.32777 35.9472 5.02732L36.0174 5.02352L36.0376 4.95617C36.0417 4.94244 36.0456 4.92894 36.0494 4.91573ZM39.6898 4.07512L39.6797 4.075L39.6698 4.0769C39.3417 4.13971 39.07 4.00037 38.755 3.83885C38.7409 3.83159 38.7266 3.82428 38.7123 3.81695C38.8121 3.60037 38.9667 3.33298 39.1493 3.07383C39.357 2.77907 39.5961 2.50185 39.8253 2.32346C40.0627 2.13875 40.2507 2.08848 40.3816 2.15638C40.449 2.19131 40.5188 2.26478 40.5793 2.40429C40.6398 2.54354 40.6877 2.74147 40.7151 3.01251C40.7297 3.28896 40.7356 3.49328 40.7206 3.64687C40.7055 3.8009 40.6708 3.88689 40.6189 3.9409C40.567 3.99493 40.4822 4.03321 40.3285 4.05461C40.1747 4.07601 39.9689 4.07852 39.6898 4.07512Z" fill="#0F2C56" stroke="#0F2C56" stroke-width="0.2"/>
</svg>
