<svg width="16" height="16" viewBox="0 0 16 16" fill="none" xmlns="http://www.w3.org/2000/svg">
<g clip-path="url(#clip0_33579_1622)">
<path fill-rule="evenodd" clip-rule="evenodd" d="M6.49073 1.39398C7.16239 0.175966 8.8377 0.175966 9.50936 1.39398L15.7635 12.7357C16.4352 13.9552 15.5961 15.4805 14.2535 15.4805H1.74658C0.403265 15.4805 -0.435087 13.9552 0.236571 12.7357L6.49073 1.39398ZM7 5.99023C7 5.43795 7.44772 4.99023 8 4.99023C8.55229 4.99023 9 5.43795 9 5.99023V8.99023C9 9.54252 8.55229 9.99023 8 9.99023C7.44772 9.99023 7 9.54252 7 8.99023V5.99023ZM8 10.9902C7.44772 10.9902 7 11.4379 7 11.9902C7 12.5425 7.44772 12.9902 8 12.9902C8.55229 12.9902 9 12.5425 9 11.9902C9 11.4379 8.55229 10.9902 8 10.9902Z" fill="#FCB32C"/>
</g>
<defs>
<clipPath id="clip0_33579_1622">
<rect width="16" height="16" fill="white" transform="translate(0 -0.00976562)"/>
</clipPath>
</defs>
</svg>
