<svg width="16" height="18" viewBox="0 0 16 18" fill="none" xmlns="http://www.w3.org/2000/svg">
<g clip-path="url(#clip0_33590_148)">
<path d="M4.3846 6.42791C4.12352 6.18488 3.7784 6.05253 3.42178 6.05869C3.06516 6.06485 2.72482 6.20904 2.47229 6.46095C2.22041 6.71352 2.07625 7.05391 2.07009 7.41057C2.06393 7.76724 2.19625 8.1124 2.43925 8.37352L6.05466 11.9894L2.43925 15.6053C2.25807 15.7736 2.12562 15.9876 2.05586 16.2248C1.98609 16.4621 1.9816 16.7137 2.04284 16.9533C2.10409 17.1929 2.22881 17.4115 2.40387 17.5861C2.57893 17.7607 2.79784 17.8849 3.03754 17.9456C3.27681 18.0069 3.52818 18.0026 3.76523 17.9332C4.00227 17.8637 4.21623 17.7317 4.3846 17.5509L8 13.935L11.6154 17.5509C11.7836 17.7321 11.9976 17.8646 12.2348 17.9344C12.472 18.0041 12.7237 18.0086 12.9632 17.9474C13.2027 17.8861 13.4213 17.7614 13.5959 17.5863C13.7705 17.4112 13.8947 17.1923 13.9553 16.9526C14.0166 16.7133 14.0124 16.4618 13.9429 16.2248C13.8735 15.9877 13.7415 15.7737 13.5607 15.6053L9.94535 11.9894L13.5607 8.37352C13.7419 8.20526 13.8744 7.99124 13.9441 7.754C14.0139 7.51677 14.0184 7.26511 13.9572 7.02553C13.8959 6.78596 13.7712 6.56734 13.5961 6.39271C13.4211 6.21809 13.2022 6.09392 12.9625 6.03328C12.7232 5.97195 12.4718 5.97623 12.2348 6.04567C11.9977 6.11511 11.7838 6.24715 11.6154 6.42791L8 10.0438L4.3846 6.42791Z" fill="#E03F41"/>
</g>
<defs>
<clipPath id="clip0_33590_148">
<rect width="16" height="18" fill="white" transform="translate(0 -0.00976562)"/>
</clipPath>
</defs>
</svg>
