<svg width="16" height="18" viewBox="0 0 16 18" fill="none" xmlns="http://www.w3.org/2000/svg">
<g clip-path="url(#clip0_33590_148)">
<path d="M5.28845 9.32826C5.09264 9.14598 4.8338 9.04672 4.56634 9.05134C4.29887 9.05597 4.04362 9.16411 3.85422 9.35304C3.66531 9.54246 3.55719 9.79775 3.55257 10.0653C3.54795 10.3328 3.64719 10.5916 3.82944 10.7875L6.54099 13.4994L3.82944 16.2113C3.69355 16.3375 3.59422 16.498 3.54189 16.6759C3.48957 16.8539 3.4862 17.0426 3.53213 17.2223C3.57807 17.402 3.67161 17.5659 3.8029 17.6969C3.9342 17.8279 4.09838 17.921 4.27815 17.9665C4.45761 18.0125 4.64614 18.0093 4.82392 17.9572C5.0017 17.9051 5.16217 17.8061 5.28845 17.6705L8 14.9586L10.7116 17.6705C10.8377 17.8064 10.9982 17.9058 11.1761 17.9581C11.354 18.0104 11.5427 18.0138 11.7224 17.9679C11.9021 17.9219 12.066 17.8284 12.197 17.6971C12.3279 17.5657 12.421 17.4015 12.4665 17.2217C12.5125 17.0423 12.5093 16.8537 12.4572 16.6759C12.4051 16.4981 12.3061 16.3376 12.1706 16.2113L9.45901 13.4994L12.1706 10.7875C12.3064 10.6613 12.4058 10.5008 12.4581 10.3228C12.5104 10.1449 12.5138 9.95615 12.4679 9.77647C12.4219 9.59679 12.3284 9.43283 12.1971 9.30186C12.0658 9.17089 11.9016 9.07776 11.7218 9.03229C11.5424 8.98628 11.3539 8.98949 11.1761 9.04158C10.9983 9.09366 10.8378 9.19269 10.7116 9.32826L8 12.0402L5.28845 9.32826Z" fill="#E03F41"/>
</g>
<defs>
<clipPath id="clip0_33590_148">
<rect width="16" height="18" fill="white" transform="translate(0 -0.00976562)"/>
</clipPath>
</defs>
</svg>
